<?xml version="1.0" standalone="no"?><!DOCTYPE svg PUBLIC "-//W3C//DTD SVG 1.1//EN" "http://www.w3.org/Graphics/SVG/1.1/DTD/svg11.dtd"><svg t="1685287734413" class="icon" viewBox="0 0 1024 1024" version="1.1" xmlns="http://www.w3.org/2000/svg" p-id="2374" width="128" height="128" xmlns:xlink="http://www.w3.org/1999/xlink"><path d="M419.7 532.9c5.8 0.6 11.6 0.9 17.4 0.9 42.9 0 84-16.8 114.7-47.5 34.8-34.8 51.8-83 46.6-132.1-8-75.3-68.4-135.7-143.6-143.6-49.1-5.2-97.3 11.8-132.1 46.6s-51.8 83-46.6 132.1c8 75.2 68.4 135.6 143.6 143.6z m-64.6-243.3c25-25 59.6-37.2 94.8-33.4 53.9 5.7 97.2 49 102.9 102.9 3.7 35.3-8.4 69.9-33.4 94.8-25 25-59.6 37.2-94.8 33.4-53.9-5.7-97.2-49-102.9-102.9-3.8-35.3 8.4-69.8 33.4-94.8zM658.9 732.8l-59.9-40c-2.8-1.9-4.9-3.8-6.1-5.7-5-7.8-4.6-17.5 1-24.5l15.6-14.8 2.7-3c0-0.1 0.1-0.1 0.1-0.2l1.8-2.4c7.2-10.1 9.6-21.3 7-33.3-3.5-16.4-16-30.1-32.7-35.7-43.3-14.7-89.8-22.1-138.1-22.1-155.3 0-290 80.6-320.4 191.8-5.3 19.4-0.1 39.8 14.1 54.3 10.5 10.8 25.7 17.1 41.6 17.1h448.1c21.7 0 41.2-16.3 44.6-37.1 2.3-14.2-2.4-28.6-12.5-38.6-2.1-2.2-4.4-4.2-6.9-5.8z m-473.2 35.7c-3.5 0-6.8-1.2-8.7-3.1-2.8-2.9-3.8-6.6-2.8-10.3 25-91.5 141.2-158 276.2-158 43.3 0 84.8 6.6 123.4 19.7 0.5 0.2 0.9 0.4 1.3 0.6l-13.6 12.8-1.4 1.5c-19.8 22.5-22.2 54.7-5.8 80.2 4.7 7.3 11.1 13.7 19.2 19.1l56.2 37.5h-444z" p-id="2375" fill="#737373"></path><path d="M873.1 659.7h-85.6v-85.6c0-12.7-10.3-22.9-22.9-22.9s-22.9 10.3-22.9 22.9v85.6H656c-12.7 0-22.9 10.3-22.9 22.9 0 12.7 10.3 22.9 22.9 22.9h85.6v85.6c0 12.7 10.3 22.9 22.9 22.9s22.9-10.3 22.9-22.9v-85.6H873c12.7 0 22.9-10.3 22.9-22.9 0.1-12.6-10.2-22.9-22.8-22.9z" p-id="2376" fill="#737373"></path></svg>