<?xml version="1.0" standalone="no"?><!DOCTYPE svg PUBLIC "-//W3C//DTD SVG 1.1//EN" "http://www.w3.org/Graphics/SVG/1.1/DTD/svg11.dtd"><svg t="1677226380424" class="icon" viewBox="0 0 1024 1024" version="1.1" xmlns="http://www.w3.org/2000/svg" p-id="207386" xmlns:xlink="http://www.w3.org/1999/xlink" width="20" height="20"><path d="M511.893356 39.458446A472.648198 472.648198 0 1 0 984.541554 511.893356 473.074776 473.074776 0 0 0 511.893356 39.458446z m0 892.614039A420.179129 420.179129 0 1 1 932.072485 511.893356 420.605707 420.605707 0 0 1 511.893356 932.072485z" fill="#cdcdcd" p-id="207387"></path><path d="M620.030827 284.953968a133.732139 133.732139 0 0 0-69.318892 18.769423 118.588627 118.588627 0 0 0-63.986669 103.658404v209.23641A69.958759 69.958759 0 0 1 447.906686 677.192252a92.354093 92.354093 0 0 1-45.003957 11.5176A78.277026 78.277026 0 0 1 319.933347 616.618205a63.986669 63.986669 0 0 1 9.81129-34.126224 83.609248 83.609248 0 0 1 48.843157-34.979379 13.437201 13.437201 0 0 1 5.545512-1.066445 24.101645 24.101645 0 0 0 17.916267-7.038534 24.528223 24.528223 0 0 0 7.465111-17.916267 24.954801 24.954801 0 0 0-25.381378-24.954801 85.315559 85.315559 0 0 0-21.32889 3.412622 132.878984 132.878984 0 0 0-76.357426 56.734847 114.536138 114.536138 0 0 0-17.489689 59.934181 127.973339 127.973339 0 0 0 134.158716 122.214538 140.557384 140.557384 0 0 0 69.74547-18.129556 118.588627 118.588627 0 0 0 63.98667-103.658405v-209.876275A70.598625 70.598625 0 0 1 575.880025 346.594459a94.486982 94.486982 0 0 1 44.790669-11.5176 78.490315 78.490315 0 0 1 83.18267 72.091648 63.986669 63.986669 0 0 1-9.811289 34.126223 79.770048 79.770048 0 0 1-48.843158 35.192668 17.063112 17.063112 0 0 1-5.545511 0 24.954801 24.954801 0 0 0-25.594668 24.954802 25.381379 25.381379 0 0 0 7.465111 17.916267 26.021246 26.021246 0 0 0 18.129557 7.251823 73.371381 73.371381 0 0 0 21.328889-3.625912 131.812539 131.812539 0 0 0 76.357426-56.521558 116.882316 116.882316 0 0 0 17.276401-60.147469 127.973339 127.973339 0 0 0-134.585295-121.361383z" fill="#cdcdcd" p-id="207388"></path></svg>