<?xml version="1.0" standalone="no"?><!DOCTYPE svg PUBLIC "-//W3C//DTD SVG 1.1//EN" "http://www.w3.org/Graphics/SVG/1.1/DTD/svg11.dtd"><svg t="1677227839256" class="icon" viewBox="0 0 1024 1024" version="1.1" xmlns="http://www.w3.org/2000/svg" p-id="225961" xmlns:xlink="http://www.w3.org/1999/xlink" width="20" height="20"><path d="M574.55 522.35L904.4 192.5c16.65-16.65 16.65-44.1 0-60.75l-1.8-1.8c-16.65-16.65-44.1-16.65-60.75 0L512 460.25l-329.85-330.3c-16.65-16.65-44.1-16.65-60.75 0l-1.8 1.8c-17.1 16.65-17.1 44.1 0 60.75l329.85 329.85L119.6 852.2c-16.65 16.65-16.65 44.1 0 60.75l1.8 1.8c16.65 16.65 44.1 16.65 60.75 0L512 584.9l329.85 329.85c16.65 16.65 44.1 16.65 60.75 0l1.8-1.8c16.65-16.65 16.65-44.1 0-60.75L574.55 522.35z" p-id="225962" fill="#515151"></path></svg>