<?xml version="1.0" standalone="no"?><!DOCTYPE svg PUBLIC "-//W3C//DTD SVG 1.1//EN" "http://www.w3.org/Graphics/SVG/1.1/DTD/svg11.dtd"><svg t="1677218586136" class="icon" viewBox="0 0 1027 1024" version="1.1" xmlns="http://www.w3.org/2000/svg" p-id="31505" xmlns:xlink="http://www.w3.org/1999/xlink" width="20.05859375" height="20"><path d="M774.4 720l-185.6-73.6s-35.2-12.8-48-28.8c-9.6-9.6-9.6-28.8 0-54.4 6.4-25.6 102.4-134.4 102.4-230.4 0-150.4-99.2-272-220.8-272-121.6 0-220.8 121.6-220.8 272 0 92.8 86.4 204.8 96 224 9.6 19.2 6.4 51.2 0 60.8-12.8 12.8-57.6 28.8-57.6 28.8l-169.6 73.6C32 736 0 771.2 0 812.8v19.2c0 44.8 38.4 73.6 83.2 73.6H761.6c44.8 0 83.2-28.8 83.2-73.6v-19.2c0-41.6-32-80-70.4-92.8zM742.4 406.4c-19.2 0-35.2-9.6-35.2-32s16-32 35.2-32h246.4c19.2 0 35.2 9.6 35.2 32s-16 32-35.2 32h-246.4zM793.6 547.2c-19.2 0-35.2-9.6-35.2-32s16-32 35.2-32h195.2c19.2 0 32 9.6 32 32s-16 32-35.2 32h-192zM860.8 678.4c-19.2 0-35.2-9.6-35.2-32s16-32 35.2-32H992c19.2 0 35.2 9.6 35.2 32s-16 32-35.2 32h-131.2z" fill="#07c060" p-id="31506"></path></svg>