<?xml version="1.0" standalone="no"?><!DOCTYPE svg PUBLIC "-//W3C//DTD SVG 1.1//EN" "http://www.w3.org/Graphics/SVG/1.1/DTD/svg11.dtd"><svg t="1677655409509" class="icon" viewBox="0 0 1024 1024" version="1.1" xmlns="http://www.w3.org/2000/svg" p-id="9444" xmlns:xlink="http://www.w3.org/1999/xlink" width="20" height="20"><path d="M0 0h1024v1024H0z" fill="#E2E2E2" p-id="9445"></path><path d="M508.032 526.176c83.328 0 151.136-67.072 151.136-149.536 0-82.432-67.808-149.504-151.136-149.504-83.328 0-151.136 67.072-151.136 149.504 0 82.464 67.808 149.536 151.136 149.536z m62.304 14.4h-113.28c-105.216 0-190.816 84.608-190.816 188.672v11.2c0 54.4 84.224 54.4 190.848 54.4h113.248c102.4 0 190.848 0 190.848-54.4v-11.2c0-104-85.632-188.672-190.848-188.672z" fill="#FFFFFF" p-id="9446"></path></svg>