<?xml version="1.0" standalone="no"?><!DOCTYPE svg PUBLIC "-//W3C//DTD SVG 1.1//EN" "http://www.w3.org/Graphics/SVG/1.1/DTD/svg11.dtd"><svg t="1677227183564" class="icon" viewBox="0 0 1024 1024" version="1.1" xmlns="http://www.w3.org/2000/svg" p-id="224656" xmlns:xlink="http://www.w3.org/1999/xlink" width="20" height="20"><path d="M836.224 917.333333h-644.266667a85.589333 85.589333 0 0 1-85.333333-85.333333V187.733333a85.589333 85.589333 0 0 1 85.333333-85.333333h644.266667a85.589333 85.589333 0 0 1 85.333333 85.333333v644.266667a91.690667 91.690667 0 0 1-85.333333 85.333333zM191.957333 170.666667a22.869333 22.869333 0 0 0-21.333333 21.333333v644.266667a22.869333 22.869333 0 0 0 21.333333 21.333333h644.266667a22.869333 22.869333 0 0 0 21.333333-21.333333V192a22.869333 22.869333 0 0 0-21.333333-21.333333z" p-id="224657" fill="#515151"></path></svg>