<?xml version="1.0" standalone="no"?><!DOCTYPE svg PUBLIC "-//W3C//DTD SVG 1.1//EN" "http://www.w3.org/Graphics/SVG/1.1/DTD/svg11.dtd"><svg t="1677226592706" class="icon" viewBox="0 0 1024 1024" version="1.1" xmlns="http://www.w3.org/2000/svg" p-id="220211" xmlns:xlink="http://www.w3.org/1999/xlink" width="20" height="20"><path d="M128.025 130.228h768.149c17.673 0 32-14.327 32-32s-14.327-32-32-32H128.025c-17.673 0-32 14.327-32 32s14.327 32 32 32zM896.174 480.203H128.025c-17.673 0-32 14.327-32 32s14.327 32 32 32h768.149c17.673 0 32-14.327 32-32s-14.327-32-32-32zM896.174 896.295H128.025c-17.673 0-32 14.327-32 32s14.327 32 32 32h768.149c17.673 0 32-14.327 32-32s-14.327-32-32-32z" p-id="220212" fill="#bfbfbf"></path></svg>