<?xml version="1.0" standalone="no"?><!DOCTYPE svg PUBLIC "-//W3C//DTD SVG 1.1//EN" "http://www.w3.org/Graphics/SVG/1.1/DTD/svg11.dtd"><svg t="1677484376557" class="icon" viewBox="0 0 1024 1024" version="1.1" xmlns="http://www.w3.org/2000/svg" p-id="41484" xmlns:xlink="http://www.w3.org/1999/xlink" width="20" height="20"><path d="M511.97 981.16c72.968 0 132.17-59.041 132.17-132.02H379.92c0.059 72.978 59.163 132.02 132.05 132.02zM232.311 388.376v264.718L116.655 746.7v53.396h563.86L270.24 247.761c-24.104 41.314-37.929 89.321-37.929 140.615zM907.344 746.7l-114.98-93.606V388.376c0-137.855-99.757-252.207-230.951-275.463V91.876c0-18.179-14.761-32.949-32.949-32.949h-32.947c-18.186 0-32.927 14.77-32.927 32.949v21.135c-44.124 7.928-84.443 26.404-118.765 52.41L260.817 53.669c-8.824-11.902-25.637-14.362-37.529-5.537-11.912 8.845-14.382 25.658-5.577 37.55l86.274 116.144c-0.18 0.21-0.398 0.389-0.577 0.597l443.979 597.672h0.996l84.142 113.258c5.28 7.091 13.386 10.837 21.575 10.837a26.814 26.814 0 0 0 15.994-5.29c11.893-8.845 14.363-25.648 5.52-37.549l-60.358-81.254h92.09v-53.398z" p-id="41485" fill="#bfbfbf"></path></svg>