<?xml version="1.0" standalone="no"?><!DOCTYPE svg PUBLIC "-//W3C//DTD SVG 1.1//EN" "http://www.w3.org/Graphics/SVG/1.1/DTD/svg11.dtd"><svg t="1677219573056" class="icon" viewBox="0 0 1024 1024" version="1.1" xmlns="http://www.w3.org/2000/svg" p-id="93492" xmlns:xlink="http://www.w3.org/1999/xlink" width="20" height="20"><path d="M736.653061 929.959184H287.346939c-45.97551 0-83.591837-37.616327-83.591837-83.591837V177.632653c0-45.97551 37.616327-83.591837 83.591837-83.591837h449.306122c45.97551 0 83.591837 37.616327 83.591837 83.591837v668.734694c0 45.97551-37.616327 83.591837-83.591837 83.591837zM287.346939 135.836735c-22.987755 0-41.795918 18.808163-41.795919 41.795918v668.734694c0 22.987755 18.808163 41.795918 41.795919 41.795918h449.306122c22.987755 0 41.795918-18.808163 41.795919-41.795918V177.632653c0-22.987755-18.808163-41.795918-41.795919-41.795918H287.346939z" fill="#cdcdcd" p-id="93493"></path><path d="M616.489796 815.020408H407.510204c-11.493878 0-20.897959-9.404082-20.897959-20.897959s9.404082-20.897959 20.897959-20.897959h208.979592c11.493878 0 20.897959 9.404082 20.897959 20.897959s-9.404082 20.897959-20.897959 20.897959z" fill="#cdcdcd" p-id="93494"></path></svg>