<?xml version="1.0" standalone="no"?><!DOCTYPE svg PUBLIC "-//W3C//DTD SVG 1.1//EN" "http://www.w3.org/Graphics/SVG/1.1/DTD/svg11.dtd"><svg t="1677750225679" class="icon" viewBox="0 0 1024 1024" version="1.1" xmlns="http://www.w3.org/2000/svg" p-id="18594" xmlns:xlink="http://www.w3.org/1999/xlink" width="80" height="80"><path d="M762.973091 267.962182C785.268364 213.271273 791.924364 160.721455 754.036364 127.767273L512.512 449.489455 484.072727 487.982545C484.072727 487.982545 437.76 555.008 421.655273 586.286545 405.457455 617.565091 384.884364 639.115636 371.525818 663.645091 359.796364 685.195636 354.071273 689.198545 347.554909 683.054545 346.717091 682.030545 345.879273 681.053091 344.901818 680.029091 344.855273 679.982545 344.808727 679.936 344.762182 679.842909 342.853818 677.376 340.154182 674.722909 336.989091 672.349091 321.303273 658.804364 300.311273 643.537455 279.179636 643.537455 227.421091 643.537455 175.336727 711.866182 175.336727 771.072 175.336727 830.324364 233.285818 892.881455 284.997818 892.881455 327.400727 892.881455 379.112727 846.149818 390.702545 802.024727L390.656 802.071273C390.656 802.071273 431.941818 738.397091 464.290909 688.128 496.593455 637.905455 512.465455 610.257455 512.465455 610.257455L566.039273 556.683636C566.085818 556.730182 740.584727 322.699636 762.973091 267.962182L762.973091 267.962182ZM285.044364 824.785455C259.211636 824.785455 254.277818 800.768 254.277818 771.118545 254.277818 741.562182 259.211636 729.181091 285.044364 729.181091 310.830545 729.181091 320.186182 741.562182 320.186182 771.118545 320.139636 800.768 310.830545 824.785455 285.044364 824.785455L285.044364 824.785455ZM512.977455 542.161455C498.222545 542.161455 490.589091 535.924364 490.589091 521.122909 490.589091 506.368 496.733091 497.291636 511.534545 497.291636 526.289455 497.291636 535.458909 506.368 535.458909 521.122909 535.458909 535.924364 527.778909 542.161455 512.977455 542.161455L512.977455 542.161455ZM431.336727 518.562909C446.789818 494.964364 460.986182 474.298182 462.010182 472.808727L462.242909 472.436364 462.522182 472.110545 491.008 433.477818 491.008 433.431273 491.101091 433.338182 496.034909 426.821818 271.546182 127.767273C233.611636 160.721455 240.360727 213.271273 262.656 267.962182 279.319273 308.875636 381.067636 449.954909 431.336727 518.562909L431.336727 518.562909ZM740.538182 645.026909C691.758545 647.959273 708.654545 660.293818 692.968727 673.838545 689.757091 676.258909 687.057455 678.865455 685.149091 681.332364 685.102545 681.425455 685.056 681.472 684.916364 681.565091 684.032 682.542545 683.240727 683.52 682.356364 684.544 675.886545 690.641455 671.557818 685.242182 659.828364 663.691636 646.516364 639.115636 620.078545 617.565091 603.973818 586.286545 600.994909 580.561455 597.038545 573.626182 592.477091 566.132364 590.289455 568.971636 588.706909 571.205818 587.543273 572.741818L586.426182 574.277818 585.029818 575.627636 528.290909 635.345455C545.745455 646.842182 559.243636 673.28 577.256727 701.207273 609.605818 751.476364 642.141091 802.071273 642.141091 802.071273L642.141091 802.024727C653.730909 846.149818 680.913455 892.788364 740.538182 895.813818 821.573818 899.909818 849.221818 830.370909 849.221818 771.072 849.221818 711.912727 828.741818 645.026909 740.538182 645.026909L740.538182 645.026909ZM740.538182 824.785455C714.798545 824.785455 708.375273 800.768 708.375273 771.118545 708.375273 741.562182 714.798545 729.181091 740.538182 729.181091 766.417455 729.181091 774.237091 753.198545 772.794182 771.118545 770.373818 800.674909 766.417455 824.785455 740.538182 824.785455L740.538182 824.785455Z" p-id="18595" fill="#515151"></path></svg>