<?xml version="1.0" standalone="no"?><!DOCTYPE svg PUBLIC "-//W3C//DTD SVG 1.1//EN" "http://www.w3.org/Graphics/SVG/1.1/DTD/svg11.dtd"><svg t="1677219844310" class="icon" viewBox="0 0 1024 1024" version="1.1" xmlns="http://www.w3.org/2000/svg" p-id="142592" xmlns:xlink="http://www.w3.org/1999/xlink" width="20" height="20"><path d="M442.7 336.2c-7.7 0-15.4-1.7-22.7-5.4-25.2-12.6-35.5-43.2-22.9-68.5l82.7-166c12.6-25.2 43.2-35.5 68.5-22.9 25.2 12.6 35.5 43.2 22.9 68.5l-82.7 166c-9 17.9-27 28.3-45.8 28.3zM289.9 350c-21.3 0-41.2-13.5-48.4-34.9l-28.3-84.5c-8.9-26.7 5.5-55.7 32.2-64.6 26.6-8.9 55.6 5.5 64.6 32.2l28.3 84.5c8.9 26.7-5.5 55.7-32.2 64.6-5.3 1.8-10.8 2.7-16.2 2.7zM191.6 467.7c-7.7 0-15.4-1.7-22.7-5.4l-19.1-9.5c-25.2-12.6-35.5-43.2-22.9-68.5 12.6-25.3 43.2-35.5 68.5-23l19.1 9.5c25.2 12.6 35.5 43.2 22.9 68.5-9 18-27.1 28.4-45.8 28.4zM115.4 650.7c-21.4 0-41.3-13.5-48.4-34.9-8.9-26.7 5.5-55.7 32.2-64.6l90-30.1c26.9-9 55.7 5.5 64.6 32.2 8.9 26.7-5.5 55.7-32.2 64.6l-90 30.1c-5.4 1.8-10.9 2.7-16.2 2.7zM275.8 813.9c-7.7 0-15.4-1.7-22.7-5.4-25.2-12.6-35.5-43.2-22.9-68.5l47.3-95c12.6-25.2 43.3-35.5 68.5-22.9 25.2 12.6 35.5 43.2 22.9 68.5l-47.3 95c-9 17.9-27.1 28.3-45.8 28.3zM558.9 953c-21.3 0-41.2-13.5-48.4-34.9l-83-247.9c-8.9-26.7 5.5-55.7 32.2-64.6 26.6-8.9 55.6 5.5 64.6 32.2l83 247.9c8.9 26.7-5.5 55.7-32.2 64.6-5.3 1.8-10.8 2.7-16.2 2.7zM902.4 750.9c-7.7 0-15.4-1.7-22.7-5.4L551.5 582c-25.2-12.6-35.5-43.2-22.9-68.5 12.6-25.3 43.3-35.5 68.5-22.9l328.1 163.5c25.2 12.6 35.5 43.2 22.9 68.5-8.9 17.9-27 28.3-45.7 28.3zM560.5 434.5c-21.3 0-41.2-13.5-48.4-34.9-8.9-26.7 5.5-55.7 32.2-64.6l307.9-103c26.5-8.9 55.6 5.5 64.6 32.2 8.9 26.7-5.5 55.7-32.2 64.6L576.7 431.9c-5.3 1.8-10.8 2.6-16.2 2.6z" fill="#cdcdcd" p-id="142593"></path></svg>