<?xml version="1.0" standalone="no"?><!DOCTYPE svg PUBLIC "-//W3C//DTD SVG 1.1//EN" "http://www.w3.org/Graphics/SVG/1.1/DTD/svg11.dtd"><svg t="1678173775699" class="icon" viewBox="0 0 1026 1024" version="1.1" xmlns="http://www.w3.org/2000/svg" p-id="13901" xmlns:xlink="http://www.w3.org/1999/xlink" width="80.15625" height="80"><path d="M513.022 2.044C795.227 2.044 1024 230.817 1024 513.022S795.227 1024 513.022 1024 2.044 795.227 2.044 513.022 230.817 2.044 513.022 2.044z m279.83 363.352c12.991-12.99 12.991-34.053 0-47.044-12.993-12.994-34.054-12.994-47.043 0L427.86 636.3 280.234 488.677c-12.991-12.99-34.056-12.99-47.045 0-12.993 12.991-12.993 34.056 0 47.043l167.094 167.094c1.118 1.614 1.794 3.435 3.231 4.874 6.706 6.708 15.552 9.803 24.34 9.584 8.79 0.22 17.632-2.874 24.344-9.582 1.437-1.44 2.12-3.264 3.242-4.88l337.41-337.414z" p-id="13902" fill="#07c060"></path></svg>