<?xml version="1.0" standalone="no"?><!DOCTYPE svg PUBLIC "-//W3C//DTD SVG 1.1//EN" "http://www.w3.org/Graphics/SVG/1.1/DTD/svg11.dtd"><svg t="1677750053438" class="icon" viewBox="0 0 1024 1024" version="1.1" xmlns="http://www.w3.org/2000/svg" p-id="7858" xmlns:xlink="http://www.w3.org/1999/xlink" width="80" height="80"><path d="M514.278 977.367c-244.131 0-442.091-197.914-442.091-442.091S270.152 93.184 514.278 93.184c244.142 0 442.102 197.914 442.102 442.092S758.42 977.367 514.278 977.367z m0-838.006c-218.639 0-395.914 177.275-395.914 395.915S295.64 931.19 514.278 931.19c218.65 0 395.93-177.275 395.93-395.914S732.928 139.36 514.278 139.36zM634.63 491.06s-8.601 3.354-19.681 3.354-20.086-3.354-20.086-3.354c-23.403-8.269-40.407-30.039-40.407-56.258 0-33.311 26.998-60.304 60.309-60.304s60.308 26.993 60.308 60.304c0.01 26.22-16.993 47.984-40.443 56.258z m-200.965 0s-9.185 3.82-19.814 3.82c-10.752 0-19.907-3.82-19.907-3.82-23.45-8.269-40.443-30.039-40.443-56.258 0-33.311 26.993-60.304 60.304-60.304 33.315 0 60.308 26.993 60.308 60.304-0.005 26.22-16.998 47.984-40.448 56.258z m310.308 114.023c-30.08 98.887-120.976 171.325-229.688 171.325-108.703 0-199.593-72.433-229.679-171.325h459.367z" fill="#515151" p-id="7859"></path></svg>