<?xml version="1.0" standalone="no"?><!DOCTYPE svg PUBLIC "-//W3C//DTD SVG 1.1//EN" "http://www.w3.org/Graphics/SVG/1.1/DTD/svg11.dtd"><svg t="1677230074490" class="icon" viewBox="0 0 1024 1024" version="1.1" xmlns="http://www.w3.org/2000/svg" p-id="88462" xmlns:xlink="http://www.w3.org/1999/xlink" width="20" height="20"><path d="M710.144 1.024c79.872 7.168 137.728 72.704 130.56 152.576-7.168 72.704-57.856 123.392-130.56 130.56h-22.016v159.744l174.08 174.08c14.336 14.336 14.336 36.352 0 57.856-7.168 7.168-14.336 7.168-22.016 14.336h-268.288l-29.184 268.288-29.184 65.536-29.184-65.536-29.184-268.288H187.904c-22.016 0-36.352-22.016-36.352-43.52 0-7.168 7.168-14.336 7.168-22.016l159.744-181.248 7.168-159.744h-22.016c-72.704 0-130.56-65.536-130.56-137.728S231.424 8.192 303.616 8.192L710.144 1.024z m0 72.192H303.616c-36.352 0-57.856 36.352-57.856 65.536s29.184 57.856 57.856 57.856h65.536c22.016 0 36.352 22.016 36.352 36.352l-7.168 210.432c0 7.168-7.168 22.016-7.168 29.184l-109.056 123.392h478.72l-123.392-123.392c-7.168-7.168-14.336-14.336-14.336-29.184V232.96c0-22.016 14.336-36.352 36.352-36.352h57.856c36.352 0 57.856-36.352 57.856-65.536-7.168-28.672-28.672-57.856-65.024-57.856z" fill="#07c060" p-id="88463"></path></svg>