<?xml version="1.0" standalone="no"?><!DOCTYPE svg PUBLIC "-//W3C//DTD SVG 1.1//EN" "http://www.w3.org/Graphics/SVG/1.1/DTD/svg11.dtd"><svg t="1677755202439" class="icon" viewBox="0 0 1024 1024" version="1.1" xmlns="http://www.w3.org/2000/svg" p-id="19651" xmlns:xlink="http://www.w3.org/1999/xlink" width="80" height="80"><path d="M781.473684 991.663158C458.105263 991.663158 0 490.442105 0 215.578947c0-107.789474 145.515789-215.578947 212.884211-215.578947 78.147368 0 212.884211 239.831579 212.884211 282.947368 0 32.336842-13.473684 56.589474-26.947368 75.452632-10.778947 16.168421-18.863158 29.642105-18.863158 45.810526 2.694737 35.031579 156.294737 191.326316 194.021053 196.715789 13.473684 0 29.642105-8.084211 45.810526-18.863158 24.252632-13.473684 51.2-26.947368 83.536842-26.947368 48.505263 0 288.336842 156.294737 288.336842 215.578947C991.663158 891.957895 875.789474 991.663158 781.473684 991.663158zM212.884211 53.894737C172.463158 53.894737 53.894737 140.126316 53.894737 215.578947c0 115.873684 102.4 296.421053 258.694737 455.410526 161.684211 164.378947 342.231579 266.778947 468.884211 266.778947 67.368421 0 156.294737-78.147368 158.989474-158.989474-18.863158-37.726316-199.410526-164.378947-234.442105-167.073684-18.863158 0-37.726316 10.778947-56.589474 21.557895-21.557895 10.778947-45.810526 24.252632-72.757895 24.252632-59.284211 0-245.221053-191.326316-245.221053-250.610526 0-32.336842 13.473684-53.894737 24.252632-75.452632 10.778947-16.168421 18.863158-29.642105 18.863158-48.505263C363.789474 226.357895 237.136842 59.284211 212.884211 53.894737zM940.463158 781.473684 940.463158 781.473684 940.463158 781.473684z" p-id="19652" fill="#515151"></path></svg>