<?xml version="1.0" standalone="no"?><!DOCTYPE svg PUBLIC "-//W3C//DTD SVG 1.1//EN" "http://www.w3.org/Graphics/SVG/1.1/DTD/svg11.dtd"><svg t="1677755232418" class="icon" viewBox="0 0 1024 1024" version="1.1" xmlns="http://www.w3.org/2000/svg" p-id="21595" xmlns:xlink="http://www.w3.org/1999/xlink" width="80" height="80"><path d="M716.8 356.8v-75.2c0-70.6-57.4-128-128-128H128c-70.6 0-128 57.4-128 128v460.8c0 70.6 57.4 128 128 128h460.8c70.6 0 128-57.4 128-128v-75.2L1024 779V245L716.8 356.8z m-51.2 385.6c0 42.4-34.4 76.8-76.8 76.8H128c-42.3 0-76.8-34.5-76.8-76.8V281.6c0-42.3 34.5-76.8 76.8-76.8h460.8c42.4 0 76.8 34.5 76.8 76.8v460.8z m307.2-36.6l-256-93.1V411.2l256-93.1v387.7z" fill="#515151" p-id="21596"></path></svg>