<?xml version="1.0" standalone="no"?><!DOCTYPE svg PUBLIC "-//W3C//DTD SVG 1.1//EN" "http://www.w3.org/Graphics/SVG/1.1/DTD/svg11.dtd"><svg t="1677224149212" class="icon" viewBox="0 0 1024 1024" version="1.1" xmlns="http://www.w3.org/2000/svg" p-id="191301" xmlns:xlink="http://www.w3.org/1999/xlink" width="20" height="20"><path d="M511.79898008 1093.07911415a112.44303809 112.44303809 0 1 0 112.44303809 112.44303721 112.55696191 112.55696191 0 0 0-112.44303809-112.44303721z m0 179.88607529a67.44303808 67.44303808 0 1 1 67.44303808-67.44303808 67.44303808 67.44303808 0 0 1-67.44303808 67.44303808z" fill="#cdcdcd" p-id="191302"></path><path d="M882.78304719 504.83037969c64.40506312-88.4658225 80.20253156-171.09873375 44.47594969-232.95189844-21.2658225-36.45569625-69.2658225-80.56708875-177.41772188-80.56708875a461.77215188 461.77215188 0 0 0-55.16962031 3.8886075C651.41089531 94.21772187 586.76279375 32 511.78557875 32S372.16026219 94.21772187 328.77798406 195.2a459.82784813 459.82784813 0 0 0-55.04810156-3.8886075c-108.27341813 0-156.27341812 43.86835406-177.41772094 80.56708875C60.58557875 333.73164594 76.38304719 416.36455719 140.66659156 504.83037969c1.70126625 2.30886094 3.64557 4.61772187 5.46835407 6.92658187-65.86329094 87.97974656-87.25063312 174.98734219-49.82278407 239.87848125 21.14430375 36.45569625 69.14430375 80.56708875 177.41772094 80.56708875a459.82784813 459.82784813 0 0 0 55.04810156-3.8886075C372.16026219 929.29620219 436.80836375 992 511.78557875 992s139.62531656-62.21772188 182.88607594-163.2a461.77215188 461.77215188 0 0 0 55.16962031 3.8886075c108.15189844 0 156.15189844-43.74683531 177.41772187-80.56708875 37.42784812-64.89113906 15.91898719-151.89873375-49.822785-239.87848031 2.18734219-2.79493688 3.76708875-5.10379781 5.34683532-7.41265875zM749.841275 239.3113925c64.64810156 0 113.86329094 18.47088563 135.85822781 56.50632937 26.12658187 45.20506312 8.99240531 109.36708875-39.49367062 177.53923969a759.97974656 759.97974656 0 0 0-103.41265875-94.90632843 773.7113925 773.7113925 0 0 0-30.50126531-137.19493688c13.00253156-1.21519031 25.51898719-1.94430375 37.54936687-1.94430375z m-142.05569625 438.68354437a986.7341775 986.7341775 0 0 1-96 48.60759469 973.12405031 973.12405031 0 0 1-96-48.60759468 930.83544281 930.83544281 0 0 1-89.68101281-59.05822782 929.86329094 929.86329094 0 0 1 0-214.35949406 921.11392406 921.11392406 0 0 1 185.68101281-107.30126531 958.42025344 958.42025344 0 0 1 96 48.60759468A970.32911438 970.32911438 0 0 1 697.34507281 404.577215a950.64303844 950.64303844 0 0 1 6.19746844 107.17974656A950.64303844 950.64303844 0 0 1 697.34507281 618.93670906a946.14683531 946.14683531 0 0 1-89.55949406 59.05822782z m79.83797438 6.56202469a681.47848125 681.47848125 0 0 1-24.30379688 90.28860844 676.37468344 676.37468344 0 0 1-89.92405125-24.30379781c19.44303844-9.6 38.76455719-19.68607594 57.96455719-30.74430375s38.15696156-23.21012625 56.26329094-35.24050688z m-237.81265782 65.74177219a686.46075938 686.46075938 0 0 1-89.92405031 24.30379781 663.37215187 663.37215187 0 0 1-24.30379781-90.2886075c18.10632937 12.15189844 36.45569625 24.30379781 55.89873375 34.99746844s38.52151875 21.38734219 58.32911437 30.98734125zM274.21595844 577.62025344a678.68354437 678.68354437 0 0 1-66.22784813-65.86329188 692.65822781 692.65822781 0 0 1 66.22784813-65.86329093c-1.33670906 21.50886094-2.30886094 43.38227812-2.30886094 65.86329093s0.97215187 44.35443 2.30886094 65.86329188z m61.73164593-238.66329188a681.47848125 681.47848125 0 0 1 24.30379688-90.2886075 686.46075938 686.46075938 0 0 1 89.92405125 24.30379781c-19.44303844 9.6-38.76455719 19.68607594-57.96455719 30.8658225s-38.27848125 23.21012625-56.26329094 35.11898719z m237.81265782-65.74177125a676.37468344 676.37468344 0 0 1 89.92405125-24.30379781 681.47848125 681.47848125 0 0 1 24.30379687 90.2886075c-17.98480969-12.15189844-36.45569625-24.30379781-55.89873375-34.87594969s-38.88607594-21.50886094-58.32911437-31.10886z m175.59493687 172.67848032a692.65822781 692.65822781 0 0 1 66.22784813 65.86329093 678.68354437 678.68354437 0 0 1-66.22784813 65.86329188c1.33670906-21.50886094 2.30886094-43.38227812 2.30886094-65.86329188s-0.97215187-44.35443-2.30886094-65.86329094zM511.78557875 80.60759469c52.25316469 0 99.64557 47.14936688 133.67088656 123.46329094a773.34683531 773.34683531 0 0 0-133.67088656 41.92405125 771.28101281 771.28101281 0 0 0-133.67088563-41.92405125C412.14000969 127.14936687 459.53241406 80.60759469 511.78557875 80.60759469zM138.35773062 295.81772188c21.99493687-38.03544281 71.0886075-56.50632937 135.85822782-56.50632938 12.15189844 0 24.30379781 0.72911437 37.54936687 1.94430375a763.13924062 763.13924062 0 0 0-30.50126531 137.19493688 768.60759469 768.60759469 0 0 0-104.02025344 94.90632843C128.75773062 405.42784812 111.74507281 341.022785 138.35773062 295.81772188zM273.7298825 784.20253156c-64.76962031 0-113.86329094-18.47088563-135.85822781-56.50632937-26.12658187-45.32658188-8.99240531-109.36708875 39.73670906-177.90379688a769.57974656 769.57974656 0 0 0 103.16962031 95.39240438 764.1113925 764.1113925 0 0 0 30.50126531 137.07341812c-13.00253156 1.21519031-25.51898719 1.94430375-37.54936687 1.94430375zM511.78557875 943.39240531c-52.25316469 0-99.64557-47.14936688-133.67088563-123.34177219a782.58227812 782.58227812 0 0 0 133.67088563-42.04557 784.76962031 784.76962031 0 0 0 133.67088656 42.04557C611.43114875 896.36455719 563.67418625 943.39240531 511.78557875 943.39240531zM885.69950281 727.69620219c-21.99493687 38.03544281-71.21012625 56.50632937-135.85822781 56.50632937-12.15189844 0-24.30379781-0.72911437-37.54936688-1.94430375a774.80506313 774.80506313 0 0 0 30.50126532-137.07341812 769.57974656 769.57974656 0 0 0 103.16962031-95.39240438c48.72911438 68.05063313 65.86329094 132.577215 39.73670906 177.90379688z" fill="#cdcdcd" p-id="191303"></path></svg>