<?xml version="1.0" standalone="no"?><!DOCTYPE svg PUBLIC "-//W3C//DTD SVG 1.1//EN" "http://www.w3.org/Graphics/SVG/1.1/DTD/svg11.dtd"><svg t="1677657331345" class="icon" viewBox="0 0 1171 1024" version="1.1" xmlns="http://www.w3.org/2000/svg" p-id="11302" width="91.484375" height="80" xmlns:xlink="http://www.w3.org/1999/xlink"><path d="M331.428571 263.428571q0-23.428571-14.285714-37.714286t-37.714286-14.285714q-24.571429 0-43.428571 14.571429t-18.857143 37.428571q0 22.285714 18.857143 36.857143t43.428571 14.571429q23.428571 0 37.714286-14t14.285714-37.428571zm424.571429 289.714286q0-16-14.571429-28.571429t-37.428571-12.571429q-15.428571 0-28.285714 12.857143t-12.857143 28.285714q0 16 12.857143 28.857143t28.285714 12.857143q22.857143 0 37.428571-12.571429t14.571429-29.142857zm-134.857143-289.714286q0-23.428571-14-37.714286t-37.428571-14.285714q-24.571429 0-43.428571 14.571429t-18.857143 37.428571q0 22.285714 18.857143 36.857143t43.428571 14.571429q23.428571 0 37.428571-14t14-37.428571zm362.857143 289.714286q0-16-14.857143-28.571429t-37.142857-12.571429q-15.428571 0-28.285714 12.857143t-12.857143 28.285714q0 16 12.857143 28.857143t28.285714 12.857143q22.285714 0 37.142857-12.571429t14.857143-29.142857zm-152-226.857143q-17.714286-2.285714-40-2.285714-96.571429 0-177.714286 44t-127.714286 119.142857-46.571429 164.285714q0 44.571429 13.142857 86.857143-20 1.714286-38.857143 1.714286-14.857143 0-28.571429-0.857143t-31.428571-3.714286-25.428571-4-31.142857-6-28.571429-6l-144.571429 72.571429 41.142857-124.571429q-165.714286-116-165.714286-280 0-96.571429 55.714286-177.714286t150.857143-127.714286 207.714286-46.571429q100.571429 0 190 37.714286t149.714286 104.285714 78 148.857143zm338.285714 320.571429q0 66.857143-39.142857 127.714286t-106 110.571429l31.428571 103.428571-113.714286-62.285714q-85.714286 21.142857-124.571429 21.142857-96.571429 0-177.714286-40.285714t-127.714286-109.428571-46.571429-150.857143 46.571429-150.857143 127.714286-109.428571 177.714286-40.285714q92 0 173.142857 40.285714t130 109.714286 48.857143 150.571429z" p-id="11303" fill="#dbdbdb"></path></svg>