<?xml version="1.0" standalone="no"?><!DOCTYPE svg PUBLIC "-//W3C//DTD SVG 1.1//EN" "http://www.w3.org/Graphics/SVG/1.1/DTD/svg11.dtd"><svg t="1679726032357" class="icon" viewBox="0 0 1024 1024" version="1.1" xmlns="http://www.w3.org/2000/svg" p-id="2284" xmlns:xlink="http://www.w3.org/1999/xlink" width="200" height="200"><path d="M0 0m113.777778 0l796.444444 0q113.777778 0 113.777778 113.777778l0 796.444444q0 113.777778-113.777778 113.777778l-796.444444 0q-113.777778 0-113.777778-113.777778l0-796.444444q0-113.777778 113.777778-113.777778Z" fill="#D9A7BB" p-id="2285"></path><path d="M672.919704 321.460148c0-2.389333-74.94163-93.980444-76.15526-95.649185a120.832 120.832 0 0 0-60.112592-41.946074 88.860444 88.860444 0 0 0-35.309037-3.792593 111.691852 111.691852 0 0 0-43.463111 7.585185c-29.961481 11.07437-55.675259 27.875556-72.05926 56.395852-1.137778 2.010074-2.958222 2.313481-4.74074 2.882371C352.711111 256.18963 337.540741 448.549926 330.600296 496.82963c-2.541037 18.204444-24.120889 164.977778-86.053926 253.496889-7.319704 10.353778-35.953778 34.740148-38.760296 47.028148C201.007407 819.2 346.642963 730.30163 347.211852 730.225778c18.697481-1.896296 75.851852-7.319704 94.814815-8.267852 3.792593-0.18963 7.130074-1.365333 7.926518-5.385482 2.616889-12.743111 6.447407-102.703407 7.585185-115.787851-0.758519-3.223704-3.527111-4.437333-5.992296-5.916445a139.794963 139.794963 0 0 1-35.953778-32.123259 175.862519 175.862519 0 0 1-36.522666-76.951704 12.781037 12.781037 0 0 0-3.602963-8.305778 14.373926 14.373926 0 0 0-4.323556-1.554963 34.360889 34.360889 0 0 1-20.935111-15.17037c-8.988444-13.767111-10.353778-28.86163-7.585185-44.411259s10.467556-27.572148 25.41037-34.133334a9.102222 9.102222 0 0 0 3.792593-2.768592 88.064 88.064 0 0 1 7.054222-10.543408 288.237037 288.237037 0 0 1 30.340741-31.592296 75.282963 75.282963 0 0 1 20.442074-13.994666c9.519407-4.28563 13.729185-2.844444 18.697481 6.523259 2.010074 3.792593 3.602963 7.585185 5.802667 11.377778a33.60237 33.60237 0 0 0 25.827556 17.408 74.94163 74.94163 0 0 0 18.432-0.303408c1.517037-0.720593 3.413333-0.682667 4.74074-1.744592 12.743111 7.585185 25.106963 15.625481 39.556741 19.531851a37.394963 37.394963 0 0 0 25.41037-1.706666c7.243852-3.109926 9.064296-2.427259 12.781037 4.551111 1.061926 2.048 1.896296 4.209778 2.768593 6.371555 3.185778 7.585185 5.726815 15.511704 9.253926 23.021037 5.006222 10.695111 10.353778 21.579852 20.745481 27.799704 7.243852 4.361481 9.02637 8.912593 8.912593 17.332148a173.511111 173.511111 0 0 1-10.277926 56.888889 165.015704 165.015704 0 0 1-62.767407 82.678519c-2.541037 1.706667-5.385481 3.109926-6.485334 6.295703a5.840593 5.840593 0 0 0-0.227555 2.275556c2.199704 12.515556 4.551111 102.4 7.585185 114.688a7.585185 7.585185 0 0 0 7.850667 5.575111c17.104593 1.061926 98.607407 3.223704 115.560296 5.385482 2.465185 0.644741 5.082074 0.265481 7.585185 1.099851 17.028741 3.527111 34.133333 6.33363 49.872593 14.904889a8.874667 8.874667 0 0 0 5.044148 0.872297c3.792593-2.389333 5.840593-1.251556 7.585185 2.768592a165.015704 165.015704 0 0 1 10.467556 41.718519c1.706667 10.733037-61.364148 21.504-59.809186 32.274963 3.375407-0.83437 71.111111-2.048 74.069334-3.792593a5.347556 5.347556 0 0 0 3.109926-6.181926c-4.551111-17.256296-22.376296-47.445333-27.83763-63.867259-65.991111-197.138963-66.673778-349.790815-70.997333-425.604741z" fill="#FB9791" p-id="2286"></path><path d="M621.112889 709.897481v-1.972148a196.304593 196.304593 0 0 0-5.271704-34.62637c-3.337481-16.232296-3.527111-11.377778-11.036444-26.244741-8.419556-16.725333-15.17037-42.894222-8.912593-67.470222 2.085926-8.229926 5.95437-21.69363 2.161778-28.937481-7.054222-13.539556-18.052741-26.548148-30.075259-31.819852-17.635556-7.585185-36.788148-7.850667-55.902815-5.347556-18.962963-2.503111-38.267259-2.389333-55.902815 5.347556-12.022519 5.271704-23.021037 18.280296-30.075259 31.819852-3.792593 7.243852 0 20.707556 2.161778 28.937481 6.295704 24.576-0.530963 50.744889-8.912593 67.470222-7.585185 14.904889-7.585185 10.012444-11.036444 26.244741a196.304593 196.304593 0 0 0-5.271704 34.62637v1.972148a63.29837 63.29837 0 0 0 2.806518 19.569778 169.225481 169.225481 0 0 0-2.806518 30.947556c0.682667 44.145778 63.791407 22.755556 85.219555 20.859259 7.850667-0.758519 15.853037-1.251556 23.817482-2.010074 7.964444 0.758519 15.928889 1.251556 23.817481 2.010074 21.428148 1.934222 84.536889 23.286519 85.219556-20.859259a169.225481 169.225481 0 0 0-2.806519-30.947556 64.474074 64.474074 0 0 0 2.806519-19.569778z" fill="#F7DECB" p-id="2287"></path><path d="M342.812444 465.389037c13.691259 26.889481 32.047407 50.782815 45.966223 27.648 7.926519-13.160296 2.199704-31.326815-2.465186-44.525037-4.096-11.605333-5.30963-29.165037-12.288-39.063704-11.946667-16.877037-54.044444-18.962963-49.000296 9.709037a231.765333 231.765333 0 0 0 17.787259 46.231704zM676.143407 465.389037c-13.50163 26.889481-32.009481 50.782815-45.928296 27.761778-7.964444-13.160296-2.23763-31.326815 2.427259-44.525037 4.096-11.605333 5.30963-29.165037 12.325926-39.063704 11.908741-16.877037 54.006519-18.962963 49.000297 9.709037a232.63763 232.63763 0 0 1-17.825186 46.117926z" fill="#FCD6BD" p-id="2288"></path><path d="M378.993778 503.542519c15.17037 45.018074 49.303704 89.315556 100.200296 104.865185 58.216296 17.711407 110.516148-9.557333 139.07437-54.044445 29.961481-46.762667 32.881778-123.941926 25.296593-176.355555-5.499259-37.925926-19.531852-77.937778-54.272-99.821037-24.500148-15.435852-56.244148-19.380148-85.788444-15.473778s-57.344 15.17037-83.664593 27.723852c-24.879407 12.022519-40.656593 37.091556-47.483259 62.008889a128.18963 128.18963 0 0 0-3.565037 31.819851c-0.530963 33.526519-1.251556 84.992 10.202074 119.277038z" fill="#FEEFE4" p-id="2289"></path><path d="M669.999407 335.341037c1.175704 7.850667 5.575111 5.95437 4.740741 12.894815-1.024 8.457481 2.616889 14.639407-0.227555 22.755555a84.916148 84.916148 0 0 1-14.601482 27.610074c-1.327407 1.554963-2.541037 3.147852-3.792592 4.740741-5.650963 8.116148-9.40563 16.877037-14.71526 25.486222 0.796444-36.067556-17.787259-68.039111-36.029629-97.962666-11.07437-18.166519-24.082963-35.764148-29.696-56.32-11.794963 13.918815-31.55437 29.089185-46.535111 39.670518A782.639407 782.639407 0 0 1 432.355556 372.508444c-24.538074 12.47763-67.659852 20.821333-67.128889 55.67526a49.531259 49.531259 0 0 0-21.769482-27.913482c-6.940444-4.020148-9.367704 5.423407-10.315852 0C325.138963 353.46963 338.033778 307.2 345.125926 284.444444c13.729185-46.042074 53.513481-79.644444 87.646815-95.232 24.196741-11.377778 51.503407-14.601481 78.203259-14.487703 15.928889 0 59.733333 15.625481 67.128889 24.158815a4.626963 4.626963 0 0 0 5.575111 2.123851c12.553481-2.048 27.685926 7.926519 37.622519 13.425778 63.450074 35.119407 69.214815 110.440296 56.13037 183.030519-13.12237-23.74163-2.730667-38.229333-10.543408-64.246519" fill="#FB9791" p-id="2290"></path><path d="M304.886519 1023.355259h382.672592v-307.768889l-177.114074 46.004149-138.581333-63.563852-66.977185 325.328592z" fill="#F2F0F5" p-id="2291"></path><path d="M336.440889 715.58637c8.00237-3.792593 26.548148-13.349926 34.664296-18.090666a34.436741 34.436741 0 0 1 20.176593-4.361482 4.551111 4.551111 0 0 1 2.313481 0.986074 5.840593 5.840593 0 0 1 1.441185 3.792593c1.061926 8.988444 34.62637 17.976889 35.688297 26.965333 0 0 71.414519 286.90963 70.959407 298.363259H158.113185c6.030222-53.854815 1.896296-180.489481 37.925926-237.985185 12.894815-20.593778 44.373333-41.035852 67.015111-47.028148 19.26637-5.044148 63.753481-18.014815 73.386667-22.641778z" fill="#4F4D74" p-id="2292"></path><path d="M424.997926 632.907852a135.433481 135.433481 0 0 0 36.636444 92.880592 154.775704 154.775704 0 0 0 44.449186 31.971556c3.792593 1.744593 18.432 6.637037 6.219851 17.559704-10.733037 9.595259-37.015704 80.251259-37.015703 80.251259s-49.531259-51.806815-55.902815-61.364148c-11.07437-16.649481-20.024889-30.340741-29.88563-47.938371a199.338667 199.338667 0 0 1-17.825185-48.77274s37.584593-47.597037 44.373333-64.474074" fill="#FFFFFF" p-id="2293"></path><path d="M687.559111 715.58637c-8.00237-3.792593-26.548148-13.349926-34.664296-18.090666a34.436741 34.436741 0 0 0-20.176593-4.361482 4.551111 4.551111 0 0 0-2.313481 0.986074 5.840593 5.840593 0 0 0-1.441185 3.792593c-1.061926 8.988444-42.552889 17.976889-43.576889 26.965333 0 0-50.896593 286.90963-50.441482 298.363259h330.94163c-6.030222-53.854815-1.896296-180.489481-37.925926-237.985185-12.894815-20.593778-44.373333-41.035852-67.015111-47.028148-19.26637-5.044148-63.753481-18.014815-73.386667-22.641778z" fill="#4F4D74" p-id="2294"></path><path d="M599.722667 632.907852a135.433481 135.433481 0 0 1-36.636445 92.880592 154.775704 154.775704 0 0 1-44.449185 31.971556c-3.792593 1.744593-16.308148 10.581333-4.096 21.541926 10.695111 9.595259 31.364741 78.810074 31.364741 78.810074s53.096296-54.347852 59.429926-63.905185c11.112296-16.649481 20.062815-30.340741 29.885629-47.938371a199.338667 199.338667 0 0 0 17.673482-48.77274s-37.584593-47.597037-44.335408-64.474074" fill="#FFFFFF" p-id="2295"></path><path d="M516.702815 767.886222s46.345481-39.480889 76.686222-45.511111c0 0 18.24237 32.654222 16.725333 56.888889s-25.069037 53.096296-25.069037 53.096296a241.170963 241.170963 0 0 1-37.015703-22.983111 348.918519 348.918519 0 0 1-32.843852-28.672" fill="#49CCB0" p-id="2296"></path><path d="M516.702815 763.335111s46.345481-39.518815 76.686222-45.511111c0 0 18.24237 32.654222 16.725333 56.888889s-25.069037 53.096296-25.069037 53.096296a242.460444 242.460444 0 0 1-37.015703-22.945185 355.176296 355.176296 0 0 1-32.843852-28.672" fill="#7EE6D0" p-id="2297"></path><path d="M525.842963 765.838222s70.618074-2.275556 69.328593-9.102222-69.328593 9.102222-69.328593 9.102222zM518.97837 772.816593s44.980148 18.24237 47.028149 11.681185-47.028148-11.681185-47.028149-11.681185zM507.448889 767.886222s-46.345481-39.480889-76.724148-45.511111c0 0-18.204444 32.654222-16.687408 56.888889s25.069037 53.096296 25.069037 53.096296a241.170963 241.170963 0 0 0 37.015704-22.983111 348.918519 348.918519 0 0 0 32.843852-28.672" fill="#49CCB0" p-id="2298"></path><path d="M507.448889 763.335111s-46.345481-39.518815-76.724148-45.511111c0 0-18.204444 32.654222-16.687408 56.888889s25.069037 53.096296 25.069037 53.096296a242.460444 242.460444 0 0 0 37.015704-22.945185 355.176296 355.176296 0 0 0 32.843852-28.672" fill="#7EE6D0" p-id="2299"></path><path d="M498.308741 765.838222s-70.618074-2.275556-69.328593-9.102222 69.328593 9.102222 69.328593 9.102222zM505.173333 772.816593s-64.70163 27.382519-66.446222 20.631703 66.446222-20.631704 66.446222-20.631703z" fill="#49CCB0" p-id="2300"></path><path d="M501.532444 753.929481m9.633186 0l3.90637 0q9.633185 0 9.633185 9.633186l0 13.842963q0 9.633185-9.633185 9.633185l-3.90637 0q-9.633185 0-9.633186-9.633185l0-13.842963q0-9.633185 9.633186-9.633186Z" fill="#49CCB0" p-id="2301"></path><path d="M501.532444 755.029333m9.633186 0l3.90637 0q9.633185 0 9.633185 9.633186l0 10.467555q0 9.633185-9.633185 9.633185l-3.90637 0q-9.633185 0-9.633186-9.633185l0-10.467555q0-9.633185 9.633186-9.633186Z" fill="#7EE6D0" p-id="2302"></path><path d="M637.76237 886.897778H728.177778v16.156444h-90.415408z" fill="#7EE6D0" p-id="2303"></path><path d="M717.179259 445.781333c-5.916444 42.439111-39.518815 72.552296-64.474074 68.835556s-12.705185-36.977778-6.788741-79.416889 3.299556-77.899852 28.141037-74.221037 49.000296 42.363259 43.121778 84.80237z" fill="#2B294A" p-id="2304"></path><path d="M719.834074 445.62963c-5.688889 45.207704-26.320593 57.230222-45.852444 54.347851s-9.974519-29.051259-5.347556-62.350222 2.654815-61.136593 22.110815-58.368 34.474667 23.172741 29.089185 66.370371z" fill="#4F4D74" p-id="2305"></path><path d="M294.532741 446.236444c6.447407 42.363259 40.466963 72.059259 65.270518 68.001186s12.250074-37.167407 5.802667-79.644445-4.323556-77.899852-29.165037-73.879704S288.237037 403.911111 294.532741 446.236444z" fill="#2B294A" p-id="2306"></path><path d="M292.02963 446.122667c6.257778 45.093926 27.079111 56.888889 46.535111 53.741037s9.633185-29.165037 4.551111-62.388148-3.413333-61.136593-22.755556-57.988741-34.436741 23.514074-28.330666 66.635852z" fill="#4F4D74" p-id="2307"></path><path d="M345.543111 379.259259c20.138667-87.002074 84.043852-150.603852 159.857778-150.603852s139.757037 63.601778 159.857778 150.603852h20.062814c-11.036444-103.23437-87.22963-183.182222-179.920592-183.182222S336.516741 276.024889 325.480296 379.259259zM499.90163 597.067852c-131.375407 0-149.238519-96.521481-149.390223-97.545482l7.585186-1.289481c0.682667 4.058074 18.62163 99.214222 158.833777 90.718815l0.455111 7.585185a313.647407 313.647407 0 0 1-17.483851 0.530963z" fill="#2B294A" p-id="2308"></path><path d="M475.97037 577.763556m13.918815 0l25.979259 0q13.918815 0 13.918815 13.918814l0 0.037926q0 13.918815-13.918815 13.918815l-25.979259 0q-13.918815 0-13.918815-13.918815l0-0.037926q0-13.918815 13.918815-13.918814Z" fill="#2B294A" p-id="2309"></path></svg>